<svg width="24" height="25" viewBox="0 0 24 25" fill="none" xmlns="http://www.w3.org/2000/svg">
<path d="M6.86667 6C4.44667 6 2.46667 8.1 2.46667 10.6667C2.46667 12.2098 3.18313 13.5833 4.27727 14.4342C2.34347 15.4516 1 17.5609 1 20H2.46667C2.46667 17.4147 4.42907 15.3333 6.86667 15.3333C9.30427 15.3333 11.2667 17.4147 11.2667 20H12.7333C12.7333 17.4147 14.6957 15.3333 17.1333 15.3333C19.5709 15.3333 21.5333 17.4147 21.5333 20H23C23 17.5601 21.6565 15.4516 19.7227 14.4342C20.2829 14.0018 20.7389 13.4351 21.0535 12.7804C21.3681 12.1257 21.5325 11.4015 21.5333 10.6667C21.5333 8.1 19.5533 6 17.1333 6C14.7133 6 12.7333 8.1 12.7333 10.6667C12.7333 12.2098 13.4498 13.5833 14.5439 14.4342C13.4724 14.9928 12.5855 15.8825 12 16.9861C11.4145 15.8825 10.5276 14.9928 9.45607 14.4342C10.0162 14.0018 10.4722 13.4351 10.7868 12.7804C11.1014 12.1257 11.2659 11.4015 11.2667 10.6667C11.2667 8.1 9.28667 6 6.86667 6ZM6.86667 7.55556C8.49687 7.55556 9.8 8.93767 9.8 10.6667C9.8 12.3957 8.49687 13.7778 6.86667 13.7778C5.23647 13.7778 3.93333 12.3957 3.93333 10.6667C3.93333 8.93767 5.23647 7.55556 6.86667 7.55556ZM17.1333 7.55556C18.7635 7.55556 20.0667 8.93767 20.0667 10.6667C20.0667 12.3957 18.7635 13.7778 17.1333 13.7778C15.5031 13.7778 14.2 12.3957 14.2 10.6667C14.2 8.93767 15.5031 7.55556 17.1333 7.55556Z" fill="#6FAE97"/>
</svg>
