<svg width="28" height="24" viewBox="0 0 28 24" fill="none" xmlns="http://www.w3.org/2000/svg">
<path d="M14 8H12V10H11V8H9V7H11V5H12V7H14V8Z" fill="#6FAE97"/>
<path d="M0.0108969 19.6073C-0.0111303 19.6874 0.000519417 19.7726 0.0432842 19.8444C0.086049 19.9161 0.156427 19.9684 0.238941 19.9898C0.321442 20.0107 0.40909 19.9992 0.482888 19.9577C0.556687 19.9163 0.610688 19.8484 0.633188 19.7686C1.29671 17.3664 3.9933 16.7438 5.60507 16.3713C6.00898 16.2782 6.32786 16.2044 6.53529 16.1175C8.37124 15.3443 8.9697 14.1004 9.14878 13.1928C9.15943 13.1388 9.15521 13.083 9.13655 13.0311C9.11789 12.9792 9.08544 12.933 9.04249 12.8971C8.08651 12.0964 7.27998 10.8944 6.77106 9.51174C6.75658 9.47214 6.73401 9.43579 6.70471 9.40485C6.03153 8.69477 5.64501 7.94406 5.64501 7.34586C5.64501 6.99644 5.78094 6.76204 6.08693 6.58515C6.13276 6.55856 6.17107 6.52133 6.19839 6.47681C6.22572 6.4323 6.24121 6.38189 6.24347 6.33012C6.38584 3.14599 8.72297 0.63945 11.5896 0.623198L11.6586 0.627573C14.5394 0.666328 16.8617 3.22663 16.9448 6.45576C16.9461 6.49988 16.9569 6.54325 16.9767 6.583C16.9964 6.62276 17.0247 6.658 17.0595 6.68641C17.2611 6.85205 17.3552 7.06208 17.3552 7.34711C17.3552 7.84779 17.0801 8.46349 16.5815 9.07981C16.5575 9.10931 16.5391 9.14276 16.5274 9.17857C16.012 10.7638 15.087 12.1633 13.9905 13.0196C13.945 13.0552 13.9103 13.102 13.8901 13.1552C13.8699 13.2084 13.865 13.2659 13.8759 13.3216C14.0467 14.1866 14.599 15.3576 16.2427 16.136L16.596 15.606C15.4863 15.1009 14.7989 14.3541 14.5491 13.3809C15.6616 12.454 16.5924 11.0238 17.1245 9.41985C17.6895 8.70727 18 7.97343 18 7.34648C18 6.92831 17.8609 6.57952 17.5851 6.30699C17.4318 2.80408 14.8557 0.0456303 11.6586 0.00125015L11.5626 0C8.42342 0.0162519 5.83634 2.70219 5.61023 6.14447C5.20696 6.432 5.00211 6.83518 5.00211 7.34711C5.00211 8.08657 5.43307 8.97105 6.18742 9.7824C6.70858 11.1719 7.5164 12.3927 8.47818 13.2472C8.21857 14.2673 7.47968 15.0393 6.2789 15.5449C6.12365 15.6106 5.81444 15.6825 5.45626 15.765C3.81937 16.1425 0.773622 16.8457 0.0108969 19.6073Z" fill="#6FAE97"/>
<g clip-path="url(#clip0_4496_14597)">
<path d="M18.6004 17.0002H21.8004M23.8004 14.2002L21.8004 16.9962L23.8004 19.8002M26.6004 12.9994C26.6004 13.4238 26.4318 13.8307 26.1318 14.1308C25.8317 14.4308 25.4247 14.5994 25.0004 14.5994C24.576 14.5994 24.1691 14.4308 23.869 14.1308C23.569 13.8307 23.4004 13.4238 23.4004 12.9994C23.4004 12.5751 23.569 12.1681 23.869 11.868C24.1691 11.568 24.576 11.3994 25.0004 11.3994C25.4247 11.3994 25.8317 11.568 26.1318 11.868C26.4318 12.1681 26.6004 12.5751 26.6004 12.9994ZM26.6004 20.9938C26.6004 21.4182 26.4318 21.8251 26.1318 22.1252C25.8317 22.4252 25.4247 22.5938 25.0004 22.5938C24.576 22.5938 24.1691 22.4252 23.869 22.1252C23.569 21.8251 23.4004 21.4182 23.4004 20.9938C23.4004 20.5695 23.569 20.1625 23.869 19.8624C24.1691 19.5624 24.576 19.3938 25.0004 19.3938C25.4247 19.3938 25.8317 19.5624 26.1318 19.8624C26.4318 20.1625 26.6004 20.5695 26.6004 20.9938ZM18.6004 16.9962C18.6004 17.4206 18.4318 17.8275 18.1318 18.1276C17.8317 18.4276 17.4247 18.5962 17.0004 18.5962C16.576 18.5962 16.1691 18.4276 15.869 18.1276C15.569 17.8275 15.4004 17.4206 15.4004 16.9962C15.4004 16.5719 15.569 16.1649 15.869 15.8648C16.1691 15.5648 16.576 15.3962 17.0004 15.3962C17.4247 15.3962 17.8317 15.5648 18.1318 15.8648C18.4318 16.1649 18.6004 16.5719 18.6004 16.9962Z" stroke="#6FAE97" stroke-width="1.5" stroke-linecap="square"/>
</g>
<defs>
<clipPath id="clip0_4496_14597">
<rect width="14" height="14" fill="white" transform="translate(14 10)"/>
</clipPath>
</defs>
</svg>
