<svg width="24" height="36" viewBox="0 0 24 36" fill="none" xmlns="http://www.w3.org/2000/svg">
<path d="M23.9092 6.51562C22.8988 8.6346 21.2658 9.98044 19.873 10.7979C19.1668 11.2123 18.5231 11.4912 18.0566 11.666C17.8234 11.7534 17.6344 11.8149 17.5039 11.8545C17.4387 11.8743 17.3877 11.8881 17.3535 11.8975C17.3367 11.902 17.3241 11.906 17.3154 11.9082C17.3113 11.9093 17.3078 11.9106 17.3057 11.9111H17.3018L17.2783 11.917L17.2686 11.9404C12.8201 22.1159 13.1385 21.3448 11.1934 26.8604L11.1924 26.8633L10.3936 29.6602L10.3926 29.6641L10.1133 31.1162L9.84082 32.5273H8.64355L7.97363 29.6621L7.97266 29.6611L7.24023 26.8379L7.23926 26.834L6.77637 25.5449C5.70473 22.6447 4.64263 20.3846 2.52051 16.6768C0.910538 13.8637 0.0498252 10.9811 0.0498047 8.76367C0.0498047 7.47179 0.217537 6.39145 0.611328 5.40723C1.00506 4.42333 1.62619 3.53194 2.53906 2.61914C4.36173 0.796647 6.47527 0.0498047 9.05664 0.0498047C10.3332 0.0498119 11.4795 0.303005 12.6602 0.791992C13.839 1.28024 14.5663 1.82359 15.6836 2.78125C17.0579 3.95926 16.9659 4.50019 19.3955 5.77148C20.5968 6.4 21.7499 6.5806 22.6025 6.60449C23.029 6.61642 23.3808 6.58899 23.626 6.55859C23.7479 6.54347 23.8436 6.52781 23.9092 6.51562ZM8.9502 4.17188C7.6406 4.17188 6.38404 4.69126 5.45801 5.61719C4.53197 6.54314 4.01172 7.79988 4.01172 9.10938C4.01183 10.4187 4.5321 11.6747 5.45801 12.6006C6.38404 13.5265 7.64058 14.0469 8.9502 14.0469C10.2596 14.0468 11.5154 13.5263 12.4414 12.6006C13.3673 11.6747 13.8876 10.4187 13.8877 9.10938C13.8877 7.79988 13.3674 6.54314 12.4414 5.61719C11.5154 4.6915 10.2596 4.17192 8.9502 4.17188Z" fill="#A83DFF" stroke="#511D8F" stroke-width="0.1"/>
<path d="M9.18848 32.0146C11.0019 32.0146 12.6421 32.2228 13.8271 32.5586C14.42 32.7266 14.8968 32.9266 15.2236 33.1455C15.5518 33.3655 15.7176 33.5974 15.7178 33.8291C15.7178 34.0609 15.552 34.2936 15.2236 34.5137C14.8968 34.7326 14.42 34.9316 13.8271 35.0996C12.6421 35.4354 11.002 35.6436 9.18848 35.6436C7.375 35.6435 5.73481 35.4354 4.5498 35.0996C3.95708 34.9316 3.48103 34.7326 3.1543 34.5137C2.82569 34.2935 2.65918 34.061 2.65918 33.8291C2.65934 33.5974 2.82592 33.3656 3.1543 33.1455C3.48106 32.9266 3.95698 32.7266 4.5498 32.5586C5.73481 32.2228 7.375 32.0147 9.18848 32.0146Z" fill="#A83DFF" stroke="#511D8F" stroke-width="0.1"/>
<rect x="8.67969" y="31.8301" width="1.14" height="0.463554" fill="#A83DFF"/>
</svg>
