<svg width="29" height="29" viewBox="0 0 29 29" fill="none" xmlns="http://www.w3.org/2000/svg">
<path d="M18.6278 21.6333C18.6278 23.9565 16.7445 25.8398 14.4213 25.8398C12.0981 25.8398 10.2148 23.9565 10.2148 21.6333" stroke="#6FAE97" stroke-width="1.5" stroke-linecap="round" stroke-linejoin="round"/>
<path d="M23.1128 21.6331H5.73139C4.55727 21.6331 3.60547 20.6812 3.60547 19.5071C3.60547 18.9433 3.82945 18.4026 4.22814 18.0038L4.95313 17.2789C5.6293 16.6027 6.00917 15.6856 6.00917 14.7294V11.4173C6.00917 6.77101 9.77578 3.00439 14.4221 3.00439C19.0685 3.00439 22.8351 6.77099 22.8351 11.4173V14.7294C22.8351 15.6856 23.215 16.6027 23.8911 17.2789L24.6161 18.0038C25.0148 18.4026 25.2388 18.9433 25.2388 19.5071C25.2388 20.6812 24.2869 21.6331 23.1128 21.6331Z" stroke="#6FAE97" stroke-width="1.5" stroke-linecap="round" stroke-linejoin="round"/>
</svg>
