<svg width="19" height="19" viewBox="0 0 19 19" fill="none" xmlns="http://www.w3.org/2000/svg">
<path d="M17.5714 0.642857C17.5714 0.472361 17.6392 0.308848 17.7597 0.188289C17.8803 0.0677295 18.0438 0 18.2143 0C18.3848 0 18.5483 0.0677295 18.6689 0.188289C18.7894 0.308848 18.8571 0.472361 18.8571 0.642857V18.2143C18.8571 18.3848 18.7894 18.5483 18.6689 18.6689C18.5483 18.7894 18.3848 18.8571 18.2143 18.8571C18.0438 18.8571 17.8803 18.7894 17.7597 18.6689C17.6392 18.5483 17.5714 18.3848 17.5714 18.2143V0.642857ZM0 1.932C0 0.375429 1.74943 -0.54 3.02829 0.348L13.746 7.788C14.0009 7.96489 14.2094 8.20066 14.3537 8.47532C14.4981 8.74997 14.574 9.0554 14.5751 9.36567C14.5762 9.67594 14.5024 9.98189 14.36 10.2576C14.2176 10.5332 14.0108 10.7705 13.7571 10.9491L3.03943 18.5006C1.76229 19.4006 0 18.4886 0 16.9243V1.932Z" fill="white"/>
</svg>
