<svg width="18" height="22" viewBox="0 0 18 22" fill="none" xmlns="http://www.w3.org/2000/svg">
<path d="M9 0C7.27609 0 5.62279 0.684819 4.40381 1.90381C3.18482 3.12279 2.5 4.77609 2.5 6.5V8H0V22H18V8H15.5V6.5C15.5 4.77609 14.8152 3.12279 13.5962 1.90381C12.3772 0.684819 10.7239 0 9 0ZM13.5 6.5V8H4.5V6.5C4.5 5.30653 4.97411 4.16193 5.81802 3.31802C6.66193 2.47411 7.80653 2 9 2C10.1935 2 11.3381 2.47411 12.182 3.31802C13.0259 4.16193 13.5 5.30653 13.5 6.5ZM4 11.504H6.004V14H4V11.504ZM4 15.5H6.004V18.004H4V15.5Z" fill="#B2CBC1"/>
</svg>
