<svg width="48" height="48" viewBox="0 0 48 48" fill="none" xmlns="http://www.w3.org/2000/svg">
<rect width="48" height="48" rx="4" fill="white" fill-opacity="0.2"/>
<path d="M24 19V33" stroke="white" stroke-linecap="round" stroke-linejoin="round"/>
<path d="M32 23V31C32 31.5304 31.7893 32.0391 31.4142 32.4142C31.0391 32.7893 30.5304 33 30 33H18C17.4696 33 16.9609 32.7893 16.5858 32.4142C16.2107 32.0391 16 31.5304 16 31V23" stroke="white" stroke-linecap="round" stroke-linejoin="round"/>
<path d="M19.5 18.9999C18.837 18.9999 18.2011 18.7366 17.7322 18.2677C17.2634 17.7989 17 17.163 17 16.4999C17 15.8369 17.2634 15.201 17.7322 14.7322C18.2011 14.2633 18.837 13.9999 19.5 13.9999C20.4647 13.9831 21.41 14.4512 22.2127 15.3431C23.0154 16.235 23.6383 17.5094 24 18.9999C24.3617 17.5094 24.9846 16.235 25.7873 15.3431C26.59 14.4512 27.5353 13.9831 28.5 13.9999C29.163 13.9999 29.7989 14.2633 30.2678 14.7322C30.7366 15.201 31 15.8369 31 16.4999C31 17.163 30.7366 17.7989 30.2678 18.2677C29.7989 18.7366 29.163 18.9999 28.5 18.9999" stroke="white" stroke-linecap="round" stroke-linejoin="round"/>
<path d="M32 19H16C15.4477 19 15 19.4477 15 20V22C15 22.5523 15.4477 23 16 23H32C32.5523 23 33 22.5523 33 22V20C33 19.4477 32.5523 19 32 19Z" stroke="white" stroke-linecap="round" stroke-linejoin="round"/>
</svg>
