<svg width="24" height="24" viewBox="0 0 24 24" fill="none" xmlns="http://www.w3.org/2000/svg">
<path d="M0 11.9922C0 5.36908 5.36908 0 11.9922 0C18.6153 0 23.9844 5.36908 23.9844 11.9922C23.9844 18.6153 18.6153 23.9844 11.9922 23.9844C5.36908 23.9844 0 18.6153 0 11.9922Z" fill="url(#paint0_linear_3213_3706)"/>
<g clip-path="url(#clip0_3213_3706)">
<path d="M13.7288 12.4365L14.4858 16.6967C14.4943 16.7469 14.4872 16.7985 14.4656 16.8445C14.444 16.8906 14.4088 16.9289 14.3648 16.9545C14.3208 16.98 14.2701 16.9915 14.2194 16.9874C14.1687 16.9833 14.1204 16.9638 14.0811 16.9316L12.2922 15.589C12.2059 15.5245 12.101 15.4896 11.9932 15.4896C11.8854 15.4896 11.7805 15.5245 11.6941 15.589L9.90227 16.9311C9.86296 16.9633 9.81476 16.9827 9.76411 16.9868C9.71346 16.9909 9.66277 16.9795 9.61879 16.954C9.57481 16.9286 9.53965 16.8903 9.51798 16.8443C9.49632 16.7984 9.48919 16.7469 9.49754 16.6967L10.254 12.4365" stroke="white" stroke-width="0.999349" stroke-linecap="round" stroke-linejoin="round"/>
<path d="M11.9922 12.9912C13.648 12.9912 14.9902 11.6489 14.9902 9.99316C14.9902 8.33739 13.648 6.99512 11.9922 6.99512C10.3364 6.99512 8.99414 8.33739 8.99414 9.99316C8.99414 11.6489 10.3364 12.9912 11.9922 12.9912Z" stroke="white" stroke-width="0.999349" stroke-linecap="round" stroke-linejoin="round"/>
</g>
<defs>
<linearGradient id="paint0_linear_3213_3706" x1="0" y1="0" x2="23.9844" y2="23.9844" gradientUnits="userSpaceOnUse">
<stop stop-color="#B26F45"/>
<stop offset="1" stop-color="#693D22"/>
</linearGradient>
<clipPath id="clip0_3213_3706">
<rect width="11.9922" height="11.9922" fill="white" transform="translate(5.99609 5.99609)"/>
</clipPath>
</defs>
</svg>
