<svg width="26" height="26" viewBox="0 0 26 26" fill="none" xmlns="http://www.w3.org/2000/svg">
<path d="M10.4765 4.48067C10.5362 3.8527 10.8279 3.26955 11.2945 2.84514C11.7612 2.42073 12.3693 2.18555 13.0001 2.18555C13.6309 2.18555 14.2391 2.42073 14.7057 2.84514C15.1724 3.26955 15.4641 3.8527 15.5238 4.48067C15.5596 4.88633 15.6927 5.27737 15.9117 5.6207C16.1308 5.96403 16.4293 6.24954 16.782 6.45307C17.1348 6.65659 17.5313 6.77214 17.9382 6.78992C18.345 6.80771 18.7502 6.72722 19.1193 6.55525C19.6926 6.29501 20.3421 6.25736 20.9415 6.44961C21.541 6.64187 22.0474 7.05028 22.3623 7.59537C22.6772 8.14045 22.7781 8.7832 22.6452 9.39854C22.5123 10.0139 22.1553 10.5578 21.6435 10.9243C21.3103 11.1582 21.0382 11.4688 20.8504 11.83C20.6626 12.1912 20.5646 12.5924 20.5646 12.9995C20.5646 13.4066 20.6626 13.8077 20.8504 14.1689C21.0382 14.5301 21.3103 14.8408 21.6435 15.0746C22.1553 15.4412 22.5123 15.9851 22.6452 16.6004C22.7781 17.2157 22.6772 17.8585 22.3623 18.4036C22.0474 18.9486 21.541 19.3571 20.9415 19.5493C20.3421 19.7416 19.6926 19.7039 19.1193 19.4437C18.7502 19.2717 18.345 19.1912 17.9382 19.209C17.5313 19.2268 17.1348 19.3423 16.782 19.5459C16.4293 19.7494 16.1308 20.0349 15.9117 20.3782C15.6927 20.7215 15.5596 21.1126 15.5238 21.5183C15.4641 22.1462 15.1724 22.7294 14.7057 23.1538C14.2391 23.5782 13.6309 23.8134 13.0001 23.8134C12.3693 23.8134 11.7612 23.5782 11.2945 23.1538C10.8279 22.7294 10.5362 22.1462 10.4765 21.5183C10.4407 21.1124 10.3076 20.7213 10.0885 20.3778C9.86945 20.0343 9.57082 19.7487 9.21793 19.5452C8.86505 19.3417 8.46831 19.2262 8.06131 19.2085C7.65431 19.1908 7.24905 19.2715 6.87985 19.4437C6.30664 19.7039 5.65712 19.7416 5.05768 19.5493C4.45824 19.3571 3.95178 18.9486 3.63687 18.4036C3.32196 17.8585 3.22112 17.2157 3.35399 16.6004C3.48685 15.9851 3.84392 15.4412 4.35568 15.0746C4.68894 14.8408 4.96097 14.5301 5.14878 14.1689C5.33658 13.8077 5.43463 13.4066 5.43463 12.9995C5.43463 12.5924 5.33658 12.1912 5.14878 11.83C4.96097 11.4688 4.68894 11.1582 4.35568 10.9243C3.84463 10.5576 3.4882 10.0139 3.35566 9.39898C3.22311 8.78407 3.32392 8.14184 3.6385 7.59711C3.95307 7.05238 4.45894 6.64406 5.05778 6.45151C5.65662 6.25896 6.30566 6.29594 6.87876 6.55525C7.24792 6.72722 7.65307 6.80771 8.05992 6.78992C8.46678 6.77214 8.86336 6.65659 9.2161 6.45307C9.56883 6.24954 9.86735 5.96403 10.0864 5.6207C10.3054 5.27737 10.4385 4.88633 10.4743 4.48067" stroke="#6FAE97" stroke-width="1.5" stroke-linecap="round" stroke-linejoin="round"/>
<path d="M13 16.25C14.7949 16.25 16.25 14.7949 16.25 13C16.25 11.2051 14.7949 9.75 13 9.75C11.2051 9.75 9.75 11.2051 9.75 13C9.75 14.7949 11.2051 16.25 13 16.25Z" stroke="#6FAE97" stroke-width="1.5" stroke-linecap="round" stroke-linejoin="round"/>
</svg>
