<svg width="20" height="20" viewBox="0 0 20 20" fill="none" xmlns="http://www.w3.org/2000/svg">
<g clip-path="url(#clip0_3228_4440)">
<path d="M4.03516 11.38V6.40833C4.03505 6.24506 4.06714 6.08338 4.12959 5.93253C4.19205 5.78167 4.28364 5.64462 4.39913 5.52921C4.51461 5.4138 4.65173 5.3223 4.80262 5.25995C4.95351 5.19759 5.11522 5.16561 5.27849 5.16583H6.52099M4.03516 8.89416H5.89932M8.50766 11.38V6.40833C8.50336 6.2424 8.53233 6.07729 8.59286 5.92274C8.65339 5.76818 8.74426 5.62731 8.8601 5.50843C8.97594 5.38955 9.11441 5.29507 9.26735 5.23056C9.42028 5.16605 9.58459 5.13281 9.75057 5.13281C9.91656 5.13281 10.0809 5.16605 10.2338 5.23056C10.3867 5.29507 10.5252 5.38955 10.641 5.50843C10.7569 5.62731 10.8478 5.76818 10.9083 5.92274C10.9688 6.07729 10.9978 6.2424 10.9935 6.40833V11.38M8.50766 8.89416H10.9935M14.7218 11.38L15.9652 12.6225M15.9652 10.1367C15.9695 10.3026 15.9405 10.4677 15.88 10.6223C15.8194 10.7768 15.7286 10.9177 15.6127 11.0366C15.4969 11.1554 15.3584 11.2499 15.2055 11.3144C15.0525 11.3789 14.8882 11.4122 14.7222 11.4122C14.5563 11.4122 14.3919 11.3789 14.239 11.3144C14.0861 11.2499 13.9476 11.1554 13.8318 11.0366C13.7159 10.9177 13.6251 10.7768 13.5645 10.6223C13.504 10.4677 13.475 10.3026 13.4793 10.1367V6.40833C13.475 6.2424 13.504 6.07729 13.5645 5.92274C13.6251 5.76818 13.7159 5.62731 13.8318 5.50843C13.9476 5.38955 14.0861 5.29507 14.239 5.23056C14.3919 5.16605 14.5563 5.13281 14.7222 5.13281C14.8882 5.13281 15.0525 5.16605 15.2055 5.23056C15.3584 5.29507 15.4969 5.38955 15.6127 5.50843C15.7286 5.62731 15.8194 5.76818 15.88 5.92274C15.9405 6.07729 15.9695 6.2424 15.9652 6.40833V10.1367Z" stroke="#B2CBC1" stroke-width="1.67" stroke-linecap="round" stroke-linejoin="round"/>
<path d="M18.5 2.14258H1.5C1.26763 2.14346 1.04508 2.23639 0.881078 2.40101C0.717079 2.56564 0.624998 2.78854 0.625 3.02091V14.3442C0.624998 14.5766 0.717079 14.7995 0.881078 14.9641C1.04508 15.1288 1.26763 15.2217 1.5 15.2226H3.53583C3.35225 16.1756 2.9576 17.0754 2.38083 17.8559C4.9225 17.8926 6.53083 16.9092 7.49583 15.2226H18.5C18.7329 15.2226 18.9564 15.13 19.1211 14.9653C19.2858 14.8006 19.3783 14.5772 19.3783 14.3442V3.02091C19.3783 2.78796 19.2858 2.56456 19.1211 2.39984C18.9564 2.23512 18.7329 2.14258 18.5 2.14258Z" stroke="#B2CBC1" stroke-width="1.67" stroke-linecap="round" stroke-linejoin="round"/>
</g>
<defs>
<clipPath id="clip0_3228_4440">
<rect width="20" height="20" fill="white"/>
</clipPath>
</defs>
</svg>
