<svg width="16" height="16" viewBox="0 0 16 16" fill="none" xmlns="http://www.w3.org/2000/svg">
<g clip-path="url(#clip0_3221_9723)">
<path d="M6.84375 13.9961C6.96075 14.1987 7.12902 14.367 7.33166 14.484C7.5343 14.601 7.76415 14.6625 7.99813 14.6625C8.23212 14.6625 8.46197 14.601 8.66461 14.484C8.86725 14.367 9.03552 14.1987 9.15252 13.9961" stroke="#10B981" stroke-width="1.33301" stroke-linecap="round" stroke-linejoin="round"/>
<path d="M2.17414 10.2158C2.08707 10.3112 2.02961 10.4299 2.00875 10.5574C1.98789 10.6849 2.00452 10.8157 2.05664 10.9339C2.10875 11.0521 2.19409 11.1526 2.30228 11.2232C2.41046 11.2938 2.53683 11.3314 2.66602 11.3315H13.3301C13.4592 11.3316 13.5856 11.2941 13.6939 11.2236C13.8022 11.1532 13.8876 11.0528 13.9399 10.9346C13.9921 10.8165 14.0089 10.6858 13.9882 10.5583C13.9675 10.4308 13.9102 10.312 13.8233 10.2165C12.9368 9.3027 11.9971 8.33161 11.9971 5.33301C11.9971 4.2724 11.5757 3.25523 10.8258 2.50527C10.0758 1.75531 9.05866 1.33398 7.99805 1.33398C6.93744 1.33398 5.92027 1.75531 5.17031 2.50527C4.42035 3.25523 3.99902 4.2724 3.99902 5.33301C3.99902 8.33161 3.05859 9.30271 2.17414 10.2158Z" stroke="#10B981" stroke-width="1.33301" stroke-linecap="round" stroke-linejoin="round"/>
</g>
<defs>
<clipPath id="clip0_3221_9723">
<rect width="15.9961" height="15.9961" fill="white"/>
</clipPath>
</defs>
</svg>
