<svg width="16" height="16" viewBox="0 0 16 16" fill="none" xmlns="http://www.w3.org/2000/svg">
<g clip-path="url(#clip0_3221_9656)">
<path d="M13.3301 8.66387C13.3301 11.9964 10.9973 13.6627 8.22466 14.6291C8.07947 14.6783 7.92176 14.6759 7.7781 14.6224C4.99878 13.6627 2.66602 11.9964 2.66602 8.66387V3.99835C2.66602 3.82158 2.73624 3.65205 2.86123 3.52706C2.98622 3.40206 3.15575 3.33184 3.33252 3.33184C4.66553 3.33184 6.33179 2.53204 7.4915 1.51895C7.63271 1.39831 7.81233 1.33203 7.99805 1.33203C8.18377 1.33203 8.36339 1.39831 8.50459 1.51895C9.67097 2.5387 11.3306 3.33184 12.6636 3.33184C12.8403 3.33184 13.0099 3.40206 13.1349 3.52706C13.2599 3.65205 13.3301 3.82158 13.3301 3.99835V8.66387Z" stroke="#10B981" stroke-width="1.33301" stroke-linecap="round" stroke-linejoin="round"/>
</g>
<defs>
<clipPath id="clip0_3221_9656">
<rect width="15.9961" height="15.9961" fill="white"/>
</clipPath>
</defs>
</svg>
