<svg width="20" height="20" viewBox="0 0 20 20" fill="none" xmlns="http://www.w3.org/2000/svg">
<path d="M4.99935 7.50065H3.74935C3.19681 7.50065 2.66691 7.28116 2.27621 6.89046C1.88551 6.49976 1.66602 5.96985 1.66602 5.41732C1.66602 4.86478 1.88551 4.33488 2.27621 3.94418C2.66691 3.55348 3.19681 3.33398 3.74935 3.33398H4.99935" stroke="#B2CBC1" stroke-width="1.66667"/>
<path d="M15 7.50065H16.25C16.8025 7.50065 17.3324 7.28116 17.7231 6.89046C18.1138 6.49976 18.3333 5.96985 18.3333 5.41732C18.3333 4.86478 18.1138 4.33488 17.7231 3.94418C17.3324 3.55348 16.8025 3.33398 16.25 3.33398H15" stroke="#B2CBC1" stroke-width="1.66667"/>
<path d="M3.33398 18.334H16.6673" stroke="#B2CBC1" stroke-width="1.66667"/>
<path d="M8.33398 12.2168V14.1668C8.33398 14.6251 7.94232 14.9835 7.52565 15.1751C6.54232 15.6251 5.83398 16.8668 5.83398 18.3335" stroke="#B2CBC1" stroke-width="1.66667"/>
<path d="M11.666 12.2168V14.1668C11.666 14.6251 12.0577 14.9835 12.4743 15.1751C13.4577 15.6251 14.166 16.8668 14.166 18.3335" stroke="#B2CBC1" stroke-width="1.66667"/>
<path d="M15 1.66602H5V7.49935C5 8.82543 5.52678 10.0972 6.46447 11.0349C7.40215 11.9726 8.67392 12.4993 10 12.4993C11.3261 12.4993 12.5979 11.9726 13.5355 11.0349C14.4732 10.0972 15 8.82543 15 7.49935V1.66602Z" stroke="#B2CBC1" stroke-width="1.66667"/>
</svg>
