<svg width="16" height="16" viewBox="0 0 16 16" fill="none" xmlns="http://www.w3.org/2000/svg">
<g clip-path="url(#clip0_3221_9884)">
<path d="M7.99707 14.6641C11.6781 14.6641 14.6621 11.68 14.6621 7.99902C14.6621 4.31802 11.6781 1.33398 7.99707 1.33398C4.31607 1.33398 1.33203 4.31802 1.33203 7.99902C1.33203 11.68 4.31607 14.6641 7.99707 14.6641Z" stroke="#10B981" stroke-width="1.33301" stroke-linecap="round" stroke-linejoin="round"/>
<path d="M6.05859 5.9981C6.21529 5.55265 6.52458 5.17704 6.93168 4.93778C7.33879 4.69852 7.81743 4.61106 8.28283 4.69089C8.74824 4.77072 9.17038 5.01269 9.47448 5.37394C9.77858 5.73519 9.94501 6.1924 9.94431 6.6646C9.94431 7.99761 7.9448 8.66412 7.9448 8.66412" stroke="#10B981" stroke-width="1.33301" stroke-linecap="round" stroke-linejoin="round"/>
<path d="M7.99805 11.3301H8.00471" stroke="#10B981" stroke-width="1.33301" stroke-linecap="round" stroke-linejoin="round"/>
</g>
<defs>
<clipPath id="clip0_3221_9884">
<rect width="15.9961" height="15.9961" fill="white"/>
</clipPath>
</defs>
</svg>
