<svg width="20" height="20" viewBox="0 0 20 20" fill="none" xmlns="http://www.w3.org/2000/svg">
<path d="M2.5 15V10C2.5 8.01088 3.29018 6.10322 4.6967 4.6967C6.10322 3.29018 8.01088 2.5 10 2.5C11.9891 2.5 13.8968 3.29018 15.3033 4.6967C16.7098 6.10322 17.5 8.01088 17.5 10V15" stroke="#B2CBC1" stroke-width="1.67" stroke-linecap="round" stroke-linejoin="round"/>
<path d="M17.5 15.8327C17.5 16.2747 17.3244 16.6986 17.0118 17.0112C16.6993 17.3238 16.2754 17.4993 15.8333 17.4993H15C14.558 17.4993 14.134 17.3238 13.8215 17.0112C13.5089 16.6986 13.3333 16.2747 13.3333 15.8327V13.3327C13.3333 12.8907 13.5089 12.4667 13.8215 12.1542C14.134 11.8416 14.558 11.666 15 11.666H17.5V15.8327ZM2.5 15.8327C2.5 16.2747 2.67559 16.6986 2.98816 17.0112C3.30072 17.3238 3.72464 17.4993 4.16667 17.4993H5C5.44203 17.4993 5.86595 17.3238 6.17851 17.0112C6.49107 16.6986 6.66667 16.2747 6.66667 15.8327V13.3327C6.66667 12.8907 6.49107 12.4667 6.17851 12.1542C5.86595 11.8416 5.44203 11.666 5 11.666H2.5V15.8327Z" stroke="#B2CBC1" stroke-width="2" stroke-linecap="round" stroke-linejoin="round"/>
</svg>
