<svg width="16" height="16" viewBox="0 0 16 16" fill="none" xmlns="http://www.w3.org/2000/svg">
<path d="M1.83398 8.00065C1.83398 9.63615 2.48368 11.2047 3.64016 12.3611C4.79663 13.5176 6.36515 14.1673 8.00065 14.1673V1.83398C6.36515 1.83398 4.79663 2.48368 3.64016 3.64016C2.48368 4.79663 1.83398 6.36515 1.83398 8.00065Z" fill="#10B981"/>
<path d="M8.00065 14.1673C9.63615 14.1673 11.2047 13.5176 12.3611 12.3611C13.5176 11.2047 14.1673 9.63615 14.1673 8.00065C14.1673 6.36515 13.5176 4.79663 12.3611 3.64016C11.2047 2.48368 9.63615 1.83398 8.00065 1.83398M8.00065 14.1673C6.36515 14.1673 4.79663 13.5176 3.64016 12.3611C2.48368 11.2047 1.83398 9.63615 1.83398 8.00065C1.83398 6.36515 2.48368 4.79663 3.64016 3.64016C4.79663 2.48368 6.36515 1.83398 8.00065 1.83398M8.00065 14.1673V1.83398" stroke="#10B981" stroke-width="1.5" stroke-linecap="round" stroke-linejoin="round"/>
</svg>
