<svg width="20" height="20" viewBox="0 0 20 20" fill="none" xmlns="http://www.w3.org/2000/svg">
<path d="M4.9987 9.16536C5.91917 9.16536 6.66536 8.41917 6.66536 7.4987C6.66536 6.57822 5.91917 5.83203 4.9987 5.83203C4.07822 5.83203 3.33203 6.57822 3.33203 7.4987C3.33203 8.41917 4.07822 9.16536 4.9987 9.16536Z" stroke="#B2CBC1" stroke-width="1.67" stroke-linecap="round" stroke-linejoin="round"/>
<path d="M4.99935 9.16602V10.8327M18.3327 1.66602L10.5827 13.416M10.5827 13.416C10.2493 13.916 9.74935 14.166 9.16602 14.166H3.33268C2.89065 14.166 2.46673 14.3416 2.15417 14.6542C1.84161 14.9667 1.66602 15.3907 1.66602 15.8327V16.666C1.66602 17.108 1.84161 17.532 2.15417 17.8445C2.46673 18.1571 2.89065 18.3327 3.33268 18.3327H4.99935C6.33268 18.3327 7.58268 17.7493 8.41602 16.5827L10.5827 13.416Z" stroke="#B2CBC1" stroke-width="1.67" stroke-linecap="round" stroke-linejoin="round"/>
</svg>
