<svg width="12" height="21" viewBox="0 0 12 21" fill="none" xmlns="http://www.w3.org/2000/svg">
<path d="M3 0V20.7914C3.24984 20.8232 3.50194 20.8445 3.75577 20.8527L3.7522 7.80562L11.9403 4.82812L3.75066 1.85002L3.75009 0H3ZM10.4531 16.5C9.64561 16.5 9 17.1456 9 17.9531C9 18.7606 9.64561 19.4062 10.4531 19.4062C11.2606 19.4062 11.9062 18.7606 11.9062 17.9531C11.9062 17.1456 11.2606 16.5 10.4531 16.5ZM5.57812 18.75C5.24428 18.75 4.91738 18.7575 4.59891 18.7709L4.59952 20.8855C4.9178 20.8989 5.24452 20.9062 5.57812 20.9062C7.20647 20.9062 8.68162 20.7387 9.71841 20.4795C10.0013 20.4088 10.2502 20.3302 10.4593 20.2498C10.4573 20.2498 10.4552 20.25 10.4532 20.25C9.53723 20.25 8.7427 19.7068 8.37455 18.9267C7.54781 18.8152 6.59278 18.75 5.57812 18.75ZM2.15625 19.025C1.89919 19.0711 1.65806 19.1217 1.43784 19.1768C0.919406 19.3063 0.509953 19.4622 0.264328 19.6074C0.0591566 19.7287 0.0128439 19.8149 0.00295329 19.8282C0.012797 19.8415 0.0592031 19.9276 0.264281 20.049C0.509906 20.1941 0.919359 20.35 1.43775 20.4795C1.65797 20.5346 1.89909 20.5852 2.15616 20.6313V19.0251L2.15625 19.025ZM0.00299978 19.8281C0.00112478 19.8255 0 19.8247 0 19.8281C0 19.8316 0.00107791 19.8307 0.00299978 19.8281Z" fill="#6B7280"/>
</svg>
