<svg width="18" height="16" viewBox="0 0 18 16" fill="none" xmlns="http://www.w3.org/2000/svg">
<path d="M4.475 15.461C3.24033 15.461 2.186 15.024 1.312 14.15C0.438 13.276 0.000666667 12.2213 0 10.986C0 9.77067 0.424667 8.72867 1.274 7.86C2.12333 6.99133 3.15567 6.54367 4.371 6.517C4.499 6.517 4.62733 6.52667 4.756 6.546C4.884 6.56533 5.012 6.58767 5.14 6.613L2.438 1.161C2.29667 0.891666 2.30267 0.630666 2.456 0.378C2.60933 0.126 2.83933 0 3.146 0H5.62C5.92667 0 6.20833 0.0806668 6.465 0.242C6.72233 0.403333 6.92333 0.618667 7.068 0.888L9 4.768L10.93 0.888C11.0753 0.618667 11.2767 0.403333 11.534 0.242C11.7907 0.0806668 12.0723 0 12.379 0H14.837C15.1437 0 15.3767 0.126 15.536 0.378C15.6953 0.631333 15.7047 0.892333 15.564 1.161L12.884 6.544C13 6.518 13.119 6.49867 13.241 6.486C13.3623 6.47267 13.4873 6.466 13.616 6.466C14.84 6.49733 15.8767 6.94733 16.726 7.816C17.5753 8.68467 18 9.733 18 10.961C18 12.2123 17.563 13.2753 16.689 14.15C15.815 15.0247 14.752 15.4617 13.5 15.461C13.3113 15.461 13.1187 15.4503 12.922 15.429C12.7253 15.4083 12.5393 15.3683 12.364 15.309C13.152 14.9657 13.705 14.382 14.023 13.558C14.341 12.734 14.5 11.8683 14.5 10.961C14.5 9.42633 13.967 8.126 12.901 7.06C11.835 5.994 10.5347 5.461 9 5.461C7.46533 5.461 6.165 5.994 5.099 7.06C4.033 8.126 3.5 9.42633 3.5 10.961C3.5 11.8763 3.64667 12.757 3.94 13.603C4.23333 14.4497 4.79667 15.0183 5.63 15.309C5.442 15.3683 5.253 15.4083 5.063 15.429C4.873 15.4497 4.677 15.4603 4.475 15.461ZM9 15.461C7.75 15.461 6.68767 15.0237 5.813 14.149C4.93833 13.2743 4.50067 12.2117 4.5 10.961C4.49933 9.71033 4.937 8.648 5.813 7.774C6.689 6.9 7.75133 6.46233 9 6.461C10.2487 6.45967 11.3113 6.89733 12.188 7.774C13.0647 8.65067 13.502 9.713 13.5 10.961C13.498 12.209 13.0607 13.2717 12.188 14.149C11.3153 15.0263 10.2527 15.4637 9 15.461ZM9 12.061L10.071 12.871C10.1583 12.9283 10.239 12.9293 10.313 12.874C10.387 12.8187 10.4077 12.7453 10.375 12.654L9.977 11.32L11.029 10.561C11.1157 10.5037 11.1423 10.4303 11.109 10.341C11.0757 10.2517 11.0117 10.207 10.917 10.207H9.61L9.192 8.813C9.15867 8.72233 9.09467 8.677 9 8.677C8.90533 8.677 8.84133 8.72233 8.808 8.813L8.391 10.207H7.083C6.98833 10.207 6.92433 10.2517 6.891 10.341C6.85767 10.4303 6.88433 10.5037 6.971 10.561L8.023 11.321L7.625 12.653C7.59167 12.7443 7.61233 12.8177 7.687 12.873C7.76167 12.9283 7.84233 12.9277 7.929 12.871L9 12.061Z" fill="#6B7280"/>
</svg>
