<svg width="16" height="24" viewBox="0 0 16 24" fill="none" xmlns="http://www.w3.org/2000/svg">
<path d="M6.03809 0.0498047C6.88647 0.0498524 7.6485 0.217832 8.43359 0.542969C9.21704 0.867451 9.70006 1.22924 10.4443 1.86719C11.3561 2.64874 11.3013 3.0138 12.9229 3.8623C13.7265 4.28273 14.498 4.40396 15.0684 4.41992C15.3535 4.42788 15.5888 4.40999 15.7529 4.38965C15.8164 4.38177 15.8691 4.37233 15.9102 4.36523C15.2374 5.75742 14.1606 6.64446 13.2402 7.18457C12.7705 7.46022 12.3425 7.64542 12.0322 7.76172C11.8771 7.81986 11.7507 7.86043 11.6641 7.88672C11.6208 7.89983 11.5871 7.90984 11.5645 7.91602C11.5533 7.91906 11.5447 7.92139 11.5391 7.92285C11.5366 7.92349 11.5346 7.92348 11.5332 7.92383L11.5312 7.9248L11.5068 7.93066L11.4971 7.95312C8.53132 14.737 8.74324 14.2237 7.44629 17.9014V17.9043L6.91309 19.7686L6.91211 19.7725L6.72559 20.7402L6.54688 21.668H5.77539L5.33203 19.7705L5.33105 19.7695L4.84277 17.8877L4.8418 17.8838L4.5332 17.0244C3.81841 15.0899 3.11052 13.5821 1.69531 11.1094C0.623044 9.23586 0.0499096 7.31727 0.0498047 5.84277C0.0498047 4.983 0.161348 4.26495 0.422852 3.61133C0.684323 2.95782 1.09759 2.36524 1.70508 1.75781C2.91657 0.546572 4.32108 0.0498047 6.03809 0.0498047ZM5.9668 2.76465C5.0893 2.76465 4.24744 3.11298 3.62695 3.7334C3.00665 4.35372 2.6583 5.19505 2.6582 6.07227C2.6582 6.94967 3.00648 7.79169 3.62695 8.41211C4.24744 9.03253 5.0893 9.38086 5.9668 9.38086C6.84425 9.38083 7.68618 9.03251 8.30664 8.41211C8.92705 7.7917 9.27539 6.94962 9.27539 6.07227C9.2753 5.1951 8.92688 4.35371 8.30664 3.7334C7.68618 3.113 6.84425 2.76468 5.9668 2.76465Z" fill="#6B7280" stroke="#202221" stroke-width="0.1"/>
<path d="M6.12695 21.3594C7.33473 21.3594 8.42676 21.4983 9.21484 21.7217C9.60909 21.8334 9.92489 21.9658 10.1406 22.1104C10.358 22.2561 10.4629 22.4067 10.4629 22.5527C10.4628 22.6987 10.3581 22.8494 10.1406 22.9951C9.92488 23.1397 9.60911 23.272 9.21484 23.3838C8.42676 23.6071 7.33473 23.7461 6.12695 23.7461C4.91899 23.7461 3.82627 23.6072 3.03809 23.3838C2.64382 23.272 2.32804 23.1397 2.1123 22.9951C1.89488 22.8494 1.79009 22.6987 1.79004 22.5527C1.79004 22.4067 1.8949 22.2561 2.1123 22.1104C2.32803 21.9658 2.64385 21.8334 3.03809 21.7217C3.82627 21.4983 4.91899 21.3594 6.12695 21.3594Z" fill="#6B7280" stroke="#202221" stroke-width="0.1"/>
<rect x="5.78711" y="21.2197" width="0.76" height="0.309035" fill="#6B7280"/>
</svg>
