<svg width="23" height="20" viewBox="0 0 23 20" fill="none" xmlns="http://www.w3.org/2000/svg">
<path d="M22.25 5.03125V17.4662C22.25 17.9736 22.0485 18.4602 21.6897 18.8189C21.3309 19.1777 20.8444 19.3792 20.337 19.3792H2.163C1.65572 19.379 1.1693 19.1773 0.810597 18.8186C0.451898 18.4599 0.250265 17.9735 0.25 17.4662V5.03125H22.25Z" fill="#747474"/>
<path d="M4.554 19.3792L18.902 5.03125H0.25V17.4662C0.25 17.9736 0.451548 18.4602 0.810305 18.8189C1.16906 19.1777 1.65564 19.3792 2.163 19.3792H4.554Z" fill="#6B7280"/>
<path d="M22.25 5.032H0.25V2.162C0.250265 1.65481 0.45193 1.16849 0.810658 0.809951C1.16939 0.45141 1.65581 0.25 2.163 0.25H20.337C20.8444 0.25 21.3309 0.451548 21.6897 0.810305C22.0485 1.16906 22.25 1.65564 22.25 2.163V5.032Z" fill="#6B7280"/>
<path d="M0.25 5.032H22.25M20.337 0.25H2.163C1.65564 0.25 1.16906 0.451548 0.810305 0.810305C0.451548 1.16906 0.25 1.65564 0.25 2.163V17.467C0.25 17.9744 0.451548 18.4609 0.810305 18.8197C1.16906 19.1785 1.65564 19.38 2.163 19.38H20.337C20.8444 19.38 21.3309 19.1785 21.6897 18.8197C22.0485 18.4609 22.25 17.9744 22.25 17.467V2.163C22.25 1.65564 22.0485 1.16906 21.6897 0.810305C21.3309 0.451548 20.8444 0.25 20.337 0.25Z" stroke="#0C2E1E" stroke-width="0.5" stroke-linecap="round" stroke-linejoin="round"/>
<path d="M3.59897 2.88034C3.53936 2.87488 3.48394 2.84734 3.44358 2.80313C3.40323 2.75891 3.38086 2.70121 3.38086 2.64134C3.38086 2.58148 3.40323 2.52378 3.44358 2.47956C3.48394 2.43534 3.53936 2.4078 3.59897 2.40234M3.59897 2.88034C3.65859 2.87488 3.71401 2.84734 3.75436 2.80313C3.79472 2.75891 3.81709 2.70121 3.81709 2.64134C3.81709 2.58148 3.79472 2.52378 3.75436 2.47956C3.71401 2.43534 3.65859 2.4078 3.59897 2.40234" stroke="#0C2E1E" stroke-width="0.5"/>
<path d="M9.33614 8.85938H3.59614C3.4697 8.86016 3.34868 8.91081 3.25937 9.00031C3.17006 9.08981 3.11966 9.21094 3.11914 9.33738V15.0764C3.11967 15.203 3.1702 15.3243 3.25973 15.4138C3.34925 15.5033 3.47053 15.5539 3.59714 15.5544H9.33614C9.46275 15.5539 9.58403 15.5033 9.67356 15.4138C9.76308 15.3243 9.81361 15.203 9.81414 15.0764V9.33638C9.81361 9.20976 9.76308 9.08849 9.67356 8.99896C9.58403 8.90943 9.46275 8.8599 9.33614 8.85938Z" fill="#4C4C4C"/>
<path d="M3.24414 15.3998L6.54414 11.3338C6.59251 11.274 6.65462 11.2267 6.72519 11.196C6.79576 11.1652 6.87271 11.152 6.94948 11.1574C7.02626 11.1628 7.10059 11.1867 7.16617 11.227C7.23175 11.2673 7.28663 11.3228 7.32614 11.3888L9.70814 15.3768" fill="#6B7280"/>
<path d="M3.24414 15.3998L6.54414 11.3338C6.59251 11.274 6.65462 11.2267 6.72519 11.196C6.79576 11.1652 6.87271 11.152 6.94948 11.1574C7.02626 11.1628 7.10059 11.1867 7.16617 11.227C7.23175 11.2673 7.28663 11.3228 7.32614 11.3888L9.70814 15.3768" stroke="#0C2E1E" stroke-width="0.5" stroke-linecap="round" stroke-linejoin="round"/>
<path d="M18.9025 8.85842H13.1625C13.0361 8.85921 12.9151 8.90986 12.8258 8.99936C12.7365 9.08886 12.6861 9.20998 12.6855 9.33642V15.0754C12.6861 15.202 12.7366 15.3233 12.8261 15.4128C12.9157 15.5024 13.0369 15.5529 13.1635 15.5534H18.9025C19.0292 15.5529 19.1504 15.5024 19.24 15.4128C19.3295 15.3233 19.38 15.202 19.3805 15.0754V9.33542C19.38 9.20881 19.3295 9.08753 19.24 8.99801C19.1504 8.90848 19.0292 8.85895 18.9025 8.85842Z" fill="#4C4C4C"/>
<path d="M12.8105 15.3986L16.1105 11.3326C16.1588 11.2726 16.2209 11.2251 16.2915 11.1942C16.3621 11.1634 16.4391 11.1501 16.5159 11.1555C16.5928 11.1609 16.6672 11.1848 16.7328 11.2253C16.7984 11.2657 16.8532 11.3214 16.8925 11.3876L19.2745 15.3756" fill="#060606"/>
<path d="M12.8105 15.3986L16.1105 11.3326C16.1588 11.2726 16.2209 11.2251 16.2915 11.1942C16.3621 11.1634 16.4391 11.1501 16.5159 11.1555C16.5928 11.1609 16.6672 11.1848 16.7328 11.2253C16.7984 11.2657 16.8532 11.3214 16.8925 11.3876L19.2745 15.3756" stroke="#0C2E1E" stroke-width="0.5" stroke-linecap="round" stroke-linejoin="round"/>
<path d="M18.9011 8.85842H13.1611C13.0347 8.85921 12.9137 8.90986 12.8244 8.99936C12.7351 9.08886 12.6847 9.20998 12.6841 9.33642V15.0754C12.6847 15.202 12.7352 15.3233 12.8247 15.4128C12.9143 15.5024 13.0355 15.5529 13.1621 15.5534H18.9011C19.0278 15.5529 19.149 15.5024 19.2386 15.4128C19.3281 15.3233 19.3786 15.202 19.3791 15.0754V9.33542C19.3786 9.20881 19.3281 9.08753 19.2386 8.99801C19.149 8.90848 19.0278 8.85895 18.9011 8.85842ZM9.33614 8.85842H3.59614C3.4697 8.85921 3.34868 8.90986 3.25937 8.99936C3.17006 9.08886 3.11966 9.20998 3.11914 9.33642V15.0754C3.11967 15.202 3.1702 15.3233 3.25973 15.4128C3.34925 15.5024 3.47053 15.5529 3.59714 15.5534H9.33614C9.46275 15.5529 9.58403 15.5024 9.67356 15.4128C9.76309 15.3233 9.81361 15.202 9.81414 15.0754V9.33542C9.81361 9.20881 9.76309 9.08753 9.67356 8.99801C9.58403 8.90848 9.46275 8.85895 9.33614 8.85842Z" stroke="#0C2E1E" stroke-width="0.5" stroke-linecap="round" stroke-linejoin="round"/>
<path d="M9.33616 2.88034C9.27655 2.87488 9.22113 2.84734 9.18077 2.80313C9.14042 2.75891 9.11805 2.70121 9.11805 2.64134C9.11805 2.58148 9.14042 2.52378 9.18077 2.47956C9.22113 2.43534 9.27655 2.4078 9.33616 2.40234M6.46616 2.88034C6.40655 2.87488 6.35113 2.84734 6.31077 2.80313C6.27042 2.75891 6.24805 2.70121 6.24805 2.64134C6.24805 2.58148 6.27042 2.52378 6.31077 2.47956C6.35113 2.43534 6.40655 2.4078 6.46616 2.40234C6.52577 2.4078 6.5812 2.43534 6.62155 2.47956C6.6619 2.52378 6.68427 2.58148 6.68427 2.64134C6.68427 2.70121 6.6619 2.75891 6.62155 2.80313C6.5812 2.84734 6.52577 2.87488 6.46616 2.88034Z" stroke="#0C2E1E" stroke-width="0.5"/>
<path d="M9.33594 2.87939C9.36916 2.88243 9.40265 2.87852 9.43428 2.86789C9.4659 2.85726 9.49496 2.84016 9.51961 2.81767C9.54425 2.79518 9.56393 2.7678 9.5774 2.73727C9.59087 2.70675 9.59782 2.67375 9.59782 2.64039C9.59782 2.60703 9.59087 2.57403 9.5774 2.54351C9.56393 2.51299 9.54425 2.48561 9.51961 2.46312C9.49496 2.44063 9.4659 2.42352 9.43428 2.41289C9.40265 2.40227 9.36916 2.39835 9.33594 2.40139" stroke="#0C2E1E" stroke-width="0.5"/>
</svg>
