<svg width="24" height="24" viewBox="0 0 24 24" fill="none" xmlns="http://www.w3.org/2000/svg">
<path d="M1 7.21657H23M21.087 2.43457H2.913C2.40564 2.43457 1.91906 2.63612 1.5603 2.99488C1.20155 3.35363 1 3.84021 1 4.34757V19.6516C1 20.1589 1.20155 20.6455 1.5603 21.0043C1.91906 21.363 2.40564 21.5646 2.913 21.5646H21.087C21.5944 21.5646 22.0809 21.363 22.4397 21.0043C22.7985 20.6455 23 20.1589 23 19.6516V4.34757C23 3.84021 22.7985 3.35363 22.4397 2.99488C22.0809 2.63612 21.5944 2.43457 21.087 2.43457Z" stroke="#6B7280" stroke-width="0.5" stroke-linecap="round" stroke-linejoin="round"/>
<path d="M4.34897 5.06491C4.28936 5.05946 4.23394 5.03191 4.19358 4.9877C4.15323 4.94348 4.13086 4.88578 4.13086 4.82591C4.13086 4.76605 4.15323 4.70835 4.19358 4.66413C4.23394 4.61991 4.28936 4.59237 4.34897 4.58691M4.34897 5.06491C4.40859 5.05946 4.46401 5.03191 4.50436 4.9877C4.54472 4.94348 4.56709 4.88578 4.56709 4.82591C4.56709 4.76605 4.54472 4.70835 4.50436 4.66413C4.46401 4.61991 4.40859 4.59237 4.34897 4.58691" stroke="#6B7280" stroke-width="0.5"/>
<path d="M3.99414 17.5834L7.29414 13.5174C7.34251 13.4576 7.40462 13.4103 7.47519 13.3796C7.54576 13.3488 7.62271 13.3356 7.69948 13.341C7.77626 13.3464 7.85059 13.3703 7.91617 13.4106C7.98175 13.4509 8.03663 13.5064 8.07614 13.5724L10.4581 17.5604" stroke="#6B7280" stroke-width="0.5" stroke-linecap="round" stroke-linejoin="round"/>
<path d="M13.5605 17.5832L16.8605 13.5172C16.9088 13.4571 16.9709 13.4096 17.0415 13.3788C17.1121 13.3479 17.1891 13.3346 17.2659 13.34C17.3428 13.3454 17.4172 13.3694 17.4828 13.4098C17.5484 13.4503 17.6032 13.506 17.6425 13.5722L20.0245 17.5602" stroke="#6B7280" stroke-width="0.5" stroke-linecap="round" stroke-linejoin="round"/>
<path d="M19.6511 11.0439H13.9111C13.7847 11.0447 13.6637 11.0954 13.5744 11.1849C13.4851 11.2744 13.4347 11.3955 13.4341 11.5219V17.2609C13.4347 17.3876 13.4852 17.5088 13.5747 17.5984C13.6643 17.6879 13.7855 17.7384 13.9121 17.7389H19.6511C19.7778 17.7384 19.899 17.6879 19.9886 17.5984C20.0781 17.5088 20.1286 17.3876 20.1291 17.2609V11.5209C20.1286 11.3943 20.0781 11.2731 19.9886 11.1835C19.899 11.094 19.7778 11.0445 19.6511 11.0439ZM10.0861 11.0439H4.34614C4.2197 11.0447 4.09868 11.0954 4.00937 11.1849C3.92006 11.2744 3.86966 11.3955 3.86914 11.5219V17.2609C3.86967 17.3876 3.9202 17.5088 4.00973 17.5984C4.09925 17.6879 4.22053 17.7384 4.34714 17.7389H10.0861C10.2128 17.7384 10.334 17.6879 10.4236 17.5984C10.5131 17.5088 10.5636 17.3876 10.5641 17.2609V11.5209C10.5636 11.3943 10.5131 11.2731 10.4236 11.1835C10.334 11.094 10.2128 11.0445 10.0861 11.0439Z" stroke="#6B7280" stroke-width="0.5" stroke-linecap="round" stroke-linejoin="round"/>
<path d="M10.0862 5.06491C10.0265 5.05946 9.97113 5.03191 9.93077 4.9877C9.89042 4.94348 9.86805 4.88578 9.86805 4.82591C9.86805 4.76605 9.89042 4.70835 9.93077 4.66413C9.97113 4.61991 10.0265 4.59237 10.0862 4.58691M7.21616 5.06491C7.15655 5.05946 7.10113 5.03191 7.06077 4.9877C7.02042 4.94348 6.99805 4.88578 6.99805 4.82591C6.99805 4.76605 7.02042 4.70835 7.06077 4.66413C7.10113 4.61991 7.15655 4.59237 7.21616 4.58691C7.27577 4.59237 7.3312 4.61991 7.37155 4.66413C7.4119 4.70835 7.43427 4.76605 7.43427 4.82591C7.43427 4.88578 7.4119 4.94348 7.37155 4.9877C7.3312 5.03191 7.27577 5.05946 7.21616 5.06491Z" stroke="#6B7280" stroke-width="0.5"/>
<path d="M10.0859 5.06494C10.1192 5.06798 10.1527 5.06406 10.1843 5.05343C10.2159 5.04281 10.245 5.0257 10.2696 5.00321C10.2942 4.98072 10.3139 4.95334 10.3274 4.92282C10.3409 4.8923 10.3478 4.8593 10.3478 4.82594C10.3478 4.79258 10.3409 4.75958 10.3274 4.72906C10.3139 4.69853 10.2942 4.67115 10.2696 4.64866C10.245 4.62617 10.2159 4.60907 10.1843 4.59844C10.1527 4.58781 10.1192 4.5839 10.0859 4.58694" stroke="#6B7280" stroke-width="0.5"/>
</svg>
